<svg width="519" height="107" viewBox="0 0 519 107" fill="none" xmlns="http://www.w3.org/2000/svg">
<path fill-rule="evenodd" clip-rule="evenodd" d="M125.029 36.7828V26.0586H189.109V36.7828H163.189V81.8774H151.025V36.7828H125.029Z" fill="white"/>
<path fill-rule="evenodd" clip-rule="evenodd" d="M201.645 26.0586V81.8774H213.885V62.3238H247.023C249.33 62.3238 250.838 62.8143 251.774 63.6774C252.692 64.524 253.257 65.9136 253.257 68.1785V81.8774H265.421V66.7385C265.421 63.3057 264.248 60.4937 262.112 58.5177C260.889 57.3867 259.385 56.5604 257.671 56.0401C259.717 55.0447 261.412 53.7324 262.718 52.1113C264.778 49.5548 265.8 46.3182 265.8 42.5617C265.8 37.2704 264.034 33.0633 260.271 30.2197C256.562 27.4178 251.066 26.0586 243.84 26.0586H201.645ZM241.718 51.9028H213.885V36.4038H241.718C245.768 36.4038 248.661 36.9381 250.523 38.11C252.278 39.2147 253.257 40.9803 253.257 43.9259C253.257 46.9194 252.269 48.8122 250.493 50.0173C248.633 51.2797 245.745 51.9028 241.718 51.9028Z" fill="white"/>
<path fill-rule="evenodd" clip-rule="evenodd" d="M281.129 81.8774V26.0586H298.079L322.414 67.7753L346.674 26.0586H363.55V81.8774H351.385V40.7055L327.717 81.8774H317.037L293.369 40.7055V81.8774H281.129Z" fill="white"/>
<path fill-rule="evenodd" clip-rule="evenodd" d="M396.733 26.0586H380.3V81.8774H392.54V38.9613L431.661 81.8774H448.018V26.0586H435.854V68.9747L396.733 26.0586Z" fill="white"/>
<path fill-rule="evenodd" clip-rule="evenodd" d="M477.057 26.0586H464.817V81.8774H517.453V71.1532H477.057V26.0586Z" fill="white"/>
<path fill-rule="evenodd" clip-rule="evenodd" d="M28.6982 7.53125L56.8327 18.0817L51.6081 32.0141L23.4735 21.4636L28.6982 7.53125Z" fill="white"/>
<path fill-rule="evenodd" clip-rule="evenodd" d="M73.809 4.08479L83.102 32.6594L68.9517 37.2613L59.6587 8.6867L73.809 4.08479Z" fill="white"/>
<path fill-rule="evenodd" clip-rule="evenodd" d="M104.62 37.2187L88.0736 62.3001L75.6532 54.1062L92.1996 29.0248L104.62 37.2187Z" fill="white"/>
<path fill-rule="evenodd" clip-rule="evenodd" d="M97.9302 81.9544L68.0041 84.6559L66.6664 69.8364L96.5924 67.1349L97.9302 81.9544Z" fill="white"/>
<path fill-rule="evenodd" clip-rule="evenodd" d="M58.7769 104.62L38.0062 82.907L48.7585 72.6213L69.5292 94.3341L58.7769 104.62Z" fill="white"/>
<path fill-rule="evenodd" clip-rule="evenodd" d="M16.6437 88.1524L20.6691 58.3756L35.4148 60.369L31.3893 90.1458L16.6437 88.1524Z" fill="white"/>
<path fill-rule="evenodd" clip-rule="evenodd" d="M3.25751 44.9269L29.0478 29.5085L36.6831 42.28L10.8928 57.6984L3.25751 44.9269Z" fill="white"/>
</svg>
